<svg xmlns="http://www.w3.org/2000/svg" style="background: #181B1F; background-color: light-dark(#181B1F, #d4d7db);" xmlns:xlink="http://www.w3.org/1999/xlink" version="1.1" width="96px" height="40px" viewBox="-0.5 -0.5 96 40" content="&lt;mxfile&gt;&lt;diagram id=&quot;BUGPEe4lgAAzojYSjZn2&quot; name=&quot;Page-1&quot;&gt;tVZtb5swEP41fI0wLk3ysdDSVdqmaa20j5MDB1g1GBmnJPv1O4NJADN101RCAn7uDt/Lc0c8GlenR8Wa8ovMQHiBn508eu8FAfHDEC8GOQ/I3qcDUCieDZB/BZ75LxgtLXrkGbQWGyAtpdC8mYOprGtI9QxjSslurpZLkc2AhhXgAM8pEy76g2e6HNBd6F/xT8CLctyZ+FZyYOlroeSxtvt5ASU7EpFkEFdsfJbVb0uWyW4C0QePxkpKPdxVpxiEye08bckfpBe/FdT6bwxuB4M3Jo4wetz7pc9jLvpowOgTj0ZdyTU8Nyw10g6rj1ipK2HFrVbyFWIppOqt6ZZGye3+IhmziYFGORdiokkICcgWcSyqZrwGg/u4dmOyYb6B0nCaQDbGR5AVaHVGFSsNbvaDieUjpZag3aS6VqWcFJbuLKcsn4rLk685xRub1vUU0/dT3L6CTksbbiN5rfv9wghPrF88fENUjQ2yCcIVcA3buiBx1fBC1nZYgmvY1gWJq2ZWo9dzcA3bhq7HS2uyYk0W1njSSB61QDLFl0lhcpwjxSbUw09iirekpE/udrv7NVrn/YGSjLVl3xzmsYaQHKfIZ3YA8U22XHNZo+wgtZbVROFO8MIItDT9w+wqRYIb1k8bynhq5yMJxrVljtmStc0QVs5Pxo8IJ0pjhNWpMLN5w7r2ZqOglUeVwlNq/IlwOdzNtbRidZuD+pmziovzB7ViuGjFG7JxmzEI3WYcsf9pxr3TjAkX8PTitCRGo+eVcKq0LGbFs8yYr87I6xT1FzyrZQ0uJZP+WBDg1q4TW5/7F17hazLwv0KHv99lxeoPqto2eHeAjirzAbr596rh8voG7GWTvxn04Tc=&lt;/diagram&gt;&lt;/mxfile&gt;"><defs/><rect fill="#181B1F" width="100%" height="100%" x="0" y="0" style="fill: light-dark(rgb(24, 27, 31), rgb(212, 215, 219));"/><g><g><rect x="1" y="1" width="89" height="38" rx="5.7" ry="5.7" fill="#111217" stroke="#73bf69" stroke-width="2" pointer-events="all" style="fill: light-dark(rgb(17, 18, 23), rgb(221, 222, 227)); stroke: light-dark(rgb(115, 191, 105), rgb(46, 111, 37));"/></g><g><path d="M 11 7.5 L 36 7.5 L 36 32.5 L 11 32.5 Z" fill="#01a88d" stroke="none" pointer-events="all" style="fill: light-dark(rgb(1, 168, 141), rgb(14, 157, 134));"/><path d="M 32.38 14.5 C 32.32 14.64 32.17 14.73 32.02 14.73 L 30.22 14.73 L 30.22 17.86 L 31.39 17.86 C 31.61 17.86 31.78 18.04 31.78 18.26 L 31.78 29.61 C 31.78 29.82 31.61 30 31.39 30 L 15.73 30 C 15.09 30 14.56 29.47 14.56 28.83 L 14.56 15.12 C 14.56 14.91 14.74 14.73 14.95 14.73 L 19.87 14.73 C 19.98 14.73 20.08 14.78 20.16 14.86 L 21.1 15.91 L 23.17 15.91 L 23.17 16.69 L 20.92 16.69 C 20.81 16.69 20.71 16.64 20.63 16.56 L 19.69 15.52 L 15.34 15.52 L 15.34 28.83 C 15.34 29.04 15.52 29.22 15.73 29.22 C 15.95 29.22 16.13 29.04 16.13 28.83 L 16.13 18.26 C 16.13 18.04 16.3 17.86 16.52 17.86 L 23.17 17.86 L 23.17 18.65 L 16.91 18.65 L 16.91 28.83 C 16.91 28.96 16.88 29.09 16.84 29.22 L 31 29.22 L 31 18.65 L 28.26 18.65 L 28.26 17.86 L 29.44 17.86 L 29.44 14.34 C 29.44 14.12 29.61 13.95 29.83 13.95 L 31.13 13.95 L 28.46 11.01 L 25.78 13.95 L 27.09 13.95 C 27.3 13.95 27.48 14.12 27.48 14.34 L 27.48 16.69 L 27.48 18.26 L 27.48 19.82 L 29.04 19.82 C 29.2 19.82 29.34 19.91 29.4 20.05 C 29.46 20.19 29.44 20.35 29.34 20.47 L 26.03 24.38 C 25.96 24.47 25.85 24.52 25.74 24.52 L 25.74 24.52 C 25.62 24.52 25.51 24.47 25.44 24.38 L 22.09 20.47 C 21.99 20.35 21.97 20.19 22.03 20.05 C 22.1 19.91 22.24 19.82 22.39 19.82 L 23.96 19.82 L 23.96 16.69 L 24.74 16.69 L 24.74 20.21 C 24.74 20.43 24.56 20.6 24.35 20.6 L 23.24 20.6 L 25.73 23.52 L 28.2 20.6 L 27.09 20.6 C 26.87 20.6 26.7 20.43 26.7 20.21 L 26.7 18.26 L 26.7 16.69 L 26.7 14.73 L 24.9 14.73 C 24.74 14.73 24.6 14.64 24.54 14.5 C 24.47 14.36 24.5 14.19 24.61 14.08 L 28.17 10.16 C 28.32 10 28.6 10 28.75 10.16 L 32.31 14.08 C 32.41 14.19 32.44 14.36 32.38 14.5" fill="#ffffff" stroke="none" pointer-events="all" style="fill: light-dark(rgb(255, 255, 255), rgb(18, 18, 18));"/></g><g><rect x="24" y="1" width="72" height="38.5" fill="none" stroke="none" pointer-events="all"/></g><g><g transform="translate(-0.5 -0.5)"><switch><foreignObject style="overflow: visible; text-align: left;" pointer-events="none" width="100%" height="100%" requiredFeatures="http://www.w3.org/TR/SVG11/feature#Extensibility"><div xmlns="http://www.w3.org/1999/xhtml" style="display: flex; align-items: unsafe center; justify-content: unsafe center; width: 70px; height: 1px; padding-top: 20px; margin-left: 25px;"><div style="box-sizing: border-box; font-size: 0; text-align: center; color: #FFFFFF; "><div style="display: inline-block; font-size: 16px; font-family: &quot;Times New Roman&quot;; color: light-dark(#FFFFFF, #121212); line-height: 1.2; pointer-events: all; white-space: normal; word-wrap: normal; ">FileIT</div></div></div></foreignObject><text x="60" y="25" fill="#FFFFFF" font-family="&quot;Times New Roman&quot;" font-size="16px" text-anchor="middle">FileIT</text></switch></g></g></g><switch><g requiredFeatures="http://www.w3.org/TR/SVG11/feature#Extensibility"/><a transform="translate(0,-5)" xlink:href="https://www.drawio.com/doc/faq/svg-export-text-problems" target="_blank"><text text-anchor="middle" font-size="10px" x="50%" y="100%">Text is not SVG - cannot display</text></a></switch></svg>