<svg xmlns="http://www.w3.org/2000/svg" style="background: #181B1F; background-color: light-dark(#181B1F, #d4d7db);" xmlns:xlink="http://www.w3.org/1999/xlink" version="1.1" width="310px" height="40px" viewBox="-0.5 -0.5 310 40" content="&lt;mxfile&gt;&lt;diagram id=&quot;BUGPEe4lgAAzojYSjZn2&quot; name=&quot;Page-1&quot;&gt;tVZtb5swEP41fEUYQgIfS5pslbapaiqt++iAA1YAI+M0ZL9+Z2PzEkjbbWoUJfbjO3P3PHc2lrcumi8cV9l3lpDccp2ksbx7y3UXKx9+JXBpAS9wWiDlNGmhAbCjv0kLIoOeaEJqjbWQYCwXtBqDMStLEosRhjln57HZgeXJCKhwSibALsb5FP1JE5G1aOA7Pf6V0DQzT0aOXtnj+Jhydir18yzXQwGK0LZdLrDZS9vXGU7YeQB5G8tbc8ZEOyqaNckltWPatjdWu7g5KcWHHLRQrzg/EROyCkxcDBkyn0qbES5IMycB3htzZxoD6jKDgiGsIIJfwMRsZGg1xeLpoM499W6oH5cNaPcCrbhWO+227jOGgU56ngB/ki5JoBT0tGQl/EWZKMD/HsGQNFS8DMa/YOzYvp7dy5QcM7mYSQlBvQwnAy857d3UzPjVgrMjWbOccRWat/Ki7TLsVkxpugrBXNzJ0gdgn7P4aMAtzU3wM8ro/GXSb2rFSY4FfR33xxzx2vWRUXhGpylajT1qduIx0UbD+jR+zZXuZp9wvA8kmBIx2Uep3kX/oUJYvt8Iqq9Josk8Z1SQXYVjuXqGY3BcKH8j3gEkGlgihCRhXgS9JTAtCdcFcVu/SWPe7LYwnDRXEH5Ob4UTSp82u2dA7h4fJuRC+GLMIM5pWsI4hmwlBZFMksIhfacXCpok0n1Wil4s54ph3dQHIHdA+lZ9NK5vpFBPt7iguazAZ1rAteQ6P8gZfp9YgctPkgktxofiVLXFzInoerb//7qhxfu9gOuqvXgPtJEsR/WRiDjTDAxUTHCddTIooeqxUEbVb3hP8kdWU0GZVHfPhGDFjOyCVdOecYOVv3Hn+u6gPrBSyVNC0eJH8HVsxwGy1o699OSf5YP1Wi0gBbtXaDiLqi2uLcMbG6+Utx2GM5ugK8wNrmzhC+lluJLkFU0q37zs42lPeEmAVZtCHUoGekhRqnWo+EOseMUVvXmZT2v2doE6y1GBztzZgb30Z2p09Q81CtP+pag93fsXT2/zBw==&lt;/diagram&gt;&lt;/mxfile&gt;"><defs/><rect fill="#181B1F" width="100%" height="100%" x="0" y="0" style="fill: light-dark(rgb(24, 27, 31), rgb(212, 215, 219));"/><g><g/><g><path d="M 19.24 18.07 L 291.76 19.94" fill="none" stroke="#73bf69" stroke-width="2" stroke-miterlimit="10" pointer-events="stroke" style="stroke: light-dark(rgb(115, 191, 105), rgb(46, 111, 37));"/><path d="M 11.24 18.02 L 19.26 14.07 L 19.21 22.07 Z" fill="#73bf69" stroke="#73bf69" stroke-width="2" stroke-miterlimit="10" pointer-events="all" style="fill: light-dark(rgb(115, 191, 105), rgb(46, 111, 37)); stroke: light-dark(rgb(115, 191, 105), rgb(46, 111, 37));"/><path d="M 297.76 19.98 L 289.74 23.93 L 291.76 19.94 L 289.79 15.93 Z" fill="#73bf69" stroke="#73bf69" stroke-width="2" stroke-miterlimit="10" pointer-events="all" style="fill: light-dark(rgb(115, 191, 105), rgb(46, 111, 37)); stroke: light-dark(rgb(115, 191, 105), rgb(46, 111, 37));"/></g><g><rect x="108" y="1" width="89" height="38" rx="5.7" ry="5.7" fill="#111217" stroke="#73bf69" stroke-width="2" pointer-events="all" style="fill: light-dark(rgb(17, 18, 23), rgb(221, 222, 227)); stroke: light-dark(rgb(115, 191, 105), rgb(46, 111, 37));"/></g><g><rect x="149" y="10" width="41" height="23.5" fill="none" stroke="none" pointer-events="all"/></g><g><g transform="translate(-0.5 -0.5)"><switch><foreignObject style="overflow: visible; text-align: left;" pointer-events="none" width="100%" height="100%" requiredFeatures="http://www.w3.org/TR/SVG11/feature#Extensibility"><div xmlns="http://www.w3.org/1999/xhtml" style="display: flex; align-items: unsafe center; justify-content: unsafe center; width: 39px; height: 1px; padding-top: 22px; margin-left: 150px;"><div style="box-sizing: border-box; font-size: 0; text-align: center; color: #FFFFFF; "><div style="display: inline-block; font-size: 9px; font-family: &quot;Times New Roman&quot;; color: light-dark(#FFFFFF, #121212); line-height: 1.2; pointer-events: all; white-space: normal; word-wrap: normal; ">REST API</div></div></div></foreignObject><text x="170" y="24" fill="#FFFFFF" font-family="&quot;Times New Roman&quot;" font-size="9px" text-anchor="middle">REST API</text></switch></g></g><g><path d="M 129.22 6.02 C 128.97 6.03 128.72 6.09 128.5 6.2 L 118.65 10.9 C 118.13 11.15 117.76 11.62 117.63 12.17 L 115.2 22.74 C 115.09 23.23 115.18 23.75 115.45 24.17 C 115.5 24.22 115.53 24.27 115.56 24.33 L 122.38 32.79 C 122.74 33.23 123.29 33.5 123.85 33.5 L 134.78 33.5 C 135.35 33.5 135.9 33.23 136.26 32.79 L 143.07 24.31 C 143.42 23.87 143.56 23.29 143.44 22.74 L 141 12.17 C 140.88 11.62 140.5 11.15 139.98 10.9 L 130.13 6.2 C 129.85 6.06 129.54 6 129.22 6.02 Z" fill="#ffffff" stroke="none" pointer-events="all" style="fill: light-dark(rgb(255, 255, 255), rgb(18, 18, 18));"/><path d="M 129.23 6.84 C 128.99 6.85 128.76 6.91 128.55 7.02 L 119.29 11.43 C 118.81 11.67 118.45 12.11 118.33 12.63 L 116.05 22.56 C 115.94 23.02 116.03 23.51 116.28 23.91 C 116.33 23.95 116.36 23.99 116.39 24.05 L 122.79 32.01 C 123.13 32.42 123.65 32.67 124.18 32.67 L 134.46 32.67 C 134.99 32.67 135.5 32.42 135.84 32.01 L 142.25 24.04 C 142.57 23.63 142.71 23.08 142.59 22.56 L 140.3 12.63 C 140.18 12.11 139.83 11.67 139.34 11.43 L 130.09 7.02 C 129.82 6.88 129.52 6.83 129.23 6.84 Z" fill="#2875e2" stroke="none" pointer-events="all" style="fill: light-dark(rgb(40, 117, 226), rgb(85, 151, 245));"/><path d="M 129.33 11.5 C 129.16 11.5 124.5 13.79 124.44 13.91 C 124.3 14.19 123.24 19.08 123.3 19.19 C 123.34 19.25 124.1 20.22 125 21.34 L 126.63 23.38 L 129.31 23.38 L 132 23.38 L 133.7 21.25 L 135.41 19.11 L 134.81 16.49 L 134.16 13.82 C 132.57 13.02 130.96 12.24 129.33 11.5 Z M 129.62 13.9 C 129.84 13.91 129.87 14.25 130.35 14.29 C 130.98 14.34 130.91 13.75 131.39 14.16 C 131.87 14.57 131.29 14.6 131.44 15.21 C 131.58 15.82 132.12 15.58 131.88 16.16 C 131.64 16.75 131.43 16.19 130.9 16.53 C 130.36 16.86 130.76 17.29 130.13 17.25 C 129.5 17.2 129.96 16.83 129.47 16.42 C 128.99 16.01 128.7 16.53 128.55 15.91 C 128.4 15.3 128.9 15.62 129.14 15.04 C 129.38 14.45 128.8 14.33 129.33 14 C 129.4 13.96 129.46 13.93 129.51 13.92 C 129.55 13.9 129.58 13.9 129.62 13.9 Z M 130.25 14.59 C 130.15 14.59 130.06 14.6 129.98 14.63 C 129.49 14.78 129.22 15.29 129.36 15.77 C 129.51 16.26 130.02 16.53 130.5 16.38 C 130.99 16.23 131.26 15.72 131.11 15.24 C 131 14.86 130.65 14.59 130.25 14.59 Z M 126.63 16.16 C 126.69 16.17 126.75 16.18 126.81 16.2 C 127.39 16.37 126.8 16.68 127.21 17.12 C 127.63 17.57 127.97 17 128.11 17.59 C 128.24 18.18 127.69 17.83 127.51 18.41 C 127.33 18.99 127.99 19 127.55 19.42 C 127.11 19.83 127.14 19.17 126.55 19.3 C 125.95 19.44 126.27 20.02 125.69 19.84 C 125.11 19.67 125.7 19.36 125.29 18.92 C 124.87 18.47 124.53 19.04 124.39 18.45 C 124.26 17.86 124.82 18.21 124.99 17.63 C 125.17 17.05 124.51 17.04 124.95 16.62 C 125.39 16.21 125.36 16.87 125.95 16.74 C 126.47 16.62 126.29 16.16 126.63 16.16 Z M 130.94 16.8 C 131 16.8 131.06 16.81 131.15 16.85 C 131.81 17.11 130.93 17.51 131.45 18 C 131.97 18.5 132.33 17.6 132.62 18.25 C 132.91 18.91 132.01 18.57 132.02 19.29 C 132.04 20.01 132.93 19.63 132.67 20.29 C 132.41 20.96 132.01 20.08 131.51 20.6 C 131.02 21.12 131.91 21.48 131.26 21.77 C 130.6 22.06 130.94 21.15 130.22 21.17 C 129.51 21.18 129.89 22.07 129.22 21.81 C 128.55 21.55 129.43 21.15 128.91 20.66 C 128.39 20.16 128.03 21.06 127.74 20.4 C 127.46 19.75 128.36 20.09 128.34 19.37 C 128.33 18.65 127.44 19.03 127.7 18.36 C 127.96 17.7 128.36 18.58 128.85 18.06 C 129.35 17.54 128.45 17.18 129.11 16.89 C 129.76 16.6 129.42 17.51 130.14 17.49 C 130.77 17.48 130.56 16.8 130.94 16.8 Z M 126.25 17.11 C 125.75 17.11 125.34 17.52 125.34 18.02 C 125.34 18.53 125.75 18.94 126.25 18.94 C 126.76 18.94 127.17 18.53 127.17 18.02 C 127.17 17.52 126.76 17.11 126.25 17.11 Z M 130.18 17.98 C 129.44 17.98 128.84 18.59 128.84 19.33 C 128.84 20.07 129.44 20.68 130.18 20.68 C 130.93 20.68 131.53 20.07 131.53 19.33 C 131.53 18.58 130.93 17.98 130.18 17.98 Z" fill="#ffffff" stroke="none" pointer-events="all" style="fill: light-dark(rgb(255, 255, 255), rgb(18, 18, 18));"/><g fill="#ffffff" font-family="&quot;Arial&quot;, &quot;Helvetica&quot;" text-anchor="middle" font-size="5.5px" style="fill: light-dark(rgb(255, 255, 255), rgb(18, 18, 18));"><text x="128.82" y="27.88">api</text></g></g></g><switch><g requiredFeatures="http://www.w3.org/TR/SVG11/feature#Extensibility"/><a transform="translate(0,-5)" xlink:href="https://www.drawio.com/doc/faq/svg-export-text-problems" target="_blank"><text text-anchor="middle" font-size="10px" x="50%" y="100%">Text is not SVG - cannot display</text></a></switch></svg>